<?xml version="1.0" encoding="UTF-8"?>
<!DOCTYPE svg PUBLIC "-//W3C//DTD SVG 1.1//EN" "http://www.w3.org/Graphics/SVG/1.1/DTD/svg11.dtd">
<svg xmlns="http://www.w3.org/2000/svg" version="1.1" width="707px" height="166px" style="shape-rendering:geometricPrecision; text-rendering:geometricPrecision; image-rendering:optimizeQuality; fill-rule:evenodd; clip-rule:evenodd" xmlns:xlink="http://www.w3.org/1999/xlink">
<g><path style="opacity:1" fill="#fcfdfe" d="M -0.5,-0.5 C 235.167,-0.5 470.833,-0.5 706.5,-0.5C 706.5,54.8333 706.5,110.167 706.5,165.5C 470.833,165.5 235.167,165.5 -0.5,165.5C -0.5,110.167 -0.5,54.8333 -0.5,-0.5 Z"/></g>
<g><path style="opacity:1" fill="#4890fc" d="M 608.5,1.5 C 633.648,-1.07138 657.981,2.09529 681.5,11C 690.15,14.4409 695.983,20.6075 699,29.5C 701.086,36.5136 702.252,43.6803 702.5,51C 700.791,75.8644 698.958,100.698 697,125.5C 696.319,137.379 691.152,146.546 681.5,153C 651.611,156.99 621.611,159.657 591.5,161C 476.765,161.665 362.099,162.165 247.5,162.5C 241.293,162.216 235.126,161.549 229,160.5C 226.001,160.481 223.168,161.148 220.5,162.5C 218.861,160.194 216.861,158.194 214.5,156.5C 212.338,158.02 210.005,159.02 207.5,159.5C 207.728,161.355 207.061,162.188 205.5,162C 203.669,158.802 201.502,155.968 199,153.5C 197.941,153.63 197.108,154.13 196.5,155C 197.973,155.71 198.64,156.876 198.5,158.5C 197.167,158.5 195.833,158.5 194.5,158.5C 194.845,161.488 193.512,162.821 190.5,162.5C 186.984,161.081 183.318,160.414 179.5,160.5C 179.5,159.5 179.5,158.5 179.5,157.5C 176.307,158.011 173.141,158.678 170,159.5C 158.936,157.444 147.77,156.277 136.5,156C 113.833,155.667 91.1667,155.333 68.5,155C 49.5741,154.79 31.2408,151.457 13.5,145C 12.09,144.632 11.09,143.799 10.5,142.5C 11.2485,140.668 12.2485,139.001 13.5,137.5C 12.6721,136.585 11.6721,135.919 10.5,135.5C 9.8519,130.782 8.51856,126.282 6.5,122C 6.64477,120.774 6.9781,119.607 7.5,118.5C 4.88262,115.134 5.38262,112.134 9,109.5C 9.49351,107.866 9.66018,106.199 9.5,104.5C 12.8499,104.665 16.1832,104.498 19.5,104C 20.8073,100.026 23.4739,97.3594 27.5,96C 33.2372,95.0946 38.9038,93.928 44.5,92.5C 41.2577,88.1819 39.2577,83.3485 38.5,78C 38.7567,75.2298 39.7567,72.7298 41.5,70.5C 38.7021,69.0311 35.7021,68.1978 32.5,68C 29.867,67.1061 27.7004,65.6061 26,63.5C 25.1268,63.7355 24.2935,64.0688 23.5,64.5C 17.9312,54.7659 11.7645,45.4325 5,36.5C 3.62151,32.1019 4.78817,28.6019 8.5,26C 13.535,23.4074 18.8683,21.7408 24.5,21C 107.058,11.6821 189.891,7.51539 273,8.5C 324.833,9.18149 376.667,9.34816 428.5,9C 488.643,6.03887 548.643,3.53887 608.5,1.5 Z"/></g>
<g><path style="opacity:1" fill="#fafcfe" d="M 117.5,48.5 C 125.656,48.009 133.656,48.8424 141.5,51C 142.475,56.7412 142.808,62.5746 142.5,68.5C 141.022,68.762 139.689,68.4287 138.5,67.5C 136.414,58.2265 130.747,53.7265 121.5,54C 116.391,57.3662 115.224,61.8662 118,67.5C 126.333,73.8333 134.667,80.1667 143,86.5C 148.897,99.1866 145.73,108.687 133.5,115C 123.798,117.008 114.131,116.841 104.5,114.5C 103.76,108.51 103.094,102.51 102.5,96.5C 104.167,96.5 105.833,96.5 107.5,96.5C 109.876,106.725 116.21,111.225 126.5,110C 128.667,109.167 130.167,107.667 131,105.5C 131.667,102.5 131.667,99.5 131,96.5C 124.974,90.24 118.14,85.0733 110.5,81C 103.567,74.7909 101.733,67.2909 105,58.5C 108.465,54.1928 112.631,50.8594 117.5,48.5 Z"/></g>
<g><path style="opacity:1" fill="#f9fbfe" d="M 211.5,48.5 C 222.328,48.0967 232.995,49.0967 243.5,51.5C 244.292,57.1302 244.625,62.7969 244.5,68.5C 243.127,68.6567 241.793,68.49 240.5,68C 235.118,56.4769 226.118,52.1436 213.5,55C 207.741,57.6578 204.241,62.1578 203,68.5C 201.885,78.3211 202.552,87.9877 205,97.5C 209.354,108.185 217.188,112.351 228.5,110C 229.783,106.936 230.45,103.603 230.5,100C 230.333,96.8333 230.167,93.6667 230,90.5C 227.993,89.3313 225.827,88.6646 223.5,88.5C 223.5,87.5 223.5,86.5 223.5,85.5C 233.167,85.5 242.833,85.5 252.5,85.5C 252.5,86.5 252.5,87.5 252.5,88.5C 249.901,88.5494 247.734,89.5494 246,91.5C 245.667,97.5 245.333,103.5 245,109.5C 234.427,116.086 222.927,118.252 210.5,116C 191.937,108.385 184.104,94.5519 187,74.5C 190.925,61.7443 199.092,53.0776 211.5,48.5 Z"/></g>
<g><path style="opacity:1" fill="#8eb9fd" d="M 265.5,49.5 C 263.167,49.5 260.833,49.5 258.5,49.5C 258.5,50.5 258.5,51.5 258.5,52.5C 257.566,51.4324 257.232,50.099 257.5,48.5C 260.385,48.1936 263.052,48.5269 265.5,49.5 Z"/></g>
<g><path style="opacity:1" fill="#f6f9fe" d="M 337.5,47.5 C 357.167,50.1667 376.833,50.1667 396.5,47.5C 397.134,53.1448 397.468,58.8114 397.5,64.5C 396.325,64.719 395.325,64.3857 394.5,63.5C 390.777,55.0277 384.443,52.361 375.5,55.5C 374.334,73.4907 374.167,91.4907 375,109.5C 376.734,111.451 378.901,112.451 381.5,112.5C 381.5,113.833 381.5,115.167 381.5,116.5C 371.861,115.64 362.194,115.307 352.5,115.5C 352.5,114.5 352.5,113.5 352.5,112.5C 354.677,112.414 356.677,111.747 358.5,110.5C 359.5,92.1788 359.833,73.8454 359.5,55.5C 355.204,54.5375 350.871,54.3708 346.5,55C 342.865,57.0962 340.865,60.2629 340.5,64.5C 339.167,64.5 337.833,64.5 336.5,64.5C 336.635,58.819 336.968,53.1523 337.5,47.5 Z"/></g>
<g><path style="opacity:1" fill="#fbfcfe" d="M 586.5,112.5 C 586.5,113.5 586.5,114.5 586.5,115.5C 584.5,115.5 582.5,115.5 580.5,115.5C 572.833,115.5 565.167,115.5 557.5,115.5C 557.281,114.325 557.614,113.325 558.5,112.5C 561.754,112.135 563.921,110.469 565,107.5C 565.667,90.5 565.667,73.5 565,56.5C 564.5,56 564,55.5 563.5,55C 554.095,52.1978 548.095,55.3644 545.5,64.5C 544.167,64.5 542.833,64.5 541.5,64.5C 541.588,59.4636 542.088,54.4636 543,49.5C 543.308,48.6919 543.808,48.0253 544.5,47.5C 545.795,48.0983 547.128,48.5983 548.5,49C 566.223,49.5692 583.889,49.0692 601.5,47.5C 602.752,53.0991 603.418,58.7657 603.5,64.5C 602.167,64.5 600.833,64.5 599.5,64.5C 598.109,57.4509 593.775,54.1175 586.5,54.5C 583.989,54.288 581.822,54.9546 580,56.5C 579.333,73.5 579.333,90.5 580,107.5C 580.776,110.837 582.943,112.503 586.5,112.5 Z"/></g>
<g><path style="opacity:1" fill="#fbfcfe" d="M 170.5,48.5 C 173.833,48.5 177.167,48.5 180.5,48.5C 180.5,49.8333 180.5,51.1667 180.5,52.5C 178.323,52.5861 176.323,53.2528 174.5,54.5C 173.334,72.8242 173.167,91.1576 174,109.5C 175.734,111.451 177.901,112.451 180.5,112.5C 180.5,113.833 180.5,115.167 180.5,116.5C 170.857,115.675 161.191,115.342 151.5,115.5C 151.5,114.5 151.5,113.5 151.5,112.5C 154.623,112.442 156.956,111.108 158.5,108.5C 159.639,91.1917 159.806,73.8584 159,56.5C 157.397,54.3436 155.23,53.0102 152.5,52.5C 151.614,51.675 151.281,50.675 151.5,49.5C 158.022,49.8235 164.355,49.4902 170.5,48.5 Z"/></g>
<g><path style="opacity:1" fill="#fafcfe" d="M 265.5,49.5 C 271.176,49.3339 276.843,49.5006 282.5,50C 291.982,63.3057 301.982,76.139 312.5,88.5C 312.783,89.2891 313.283,89.9558 314,90.5C 314.826,79.3255 314.659,68.3255 313.5,57.5C 313.586,56.5041 313.252,55.6708 312.5,55C 309.978,53.6591 307.311,52.8257 304.5,52.5C 304.5,51.5 304.5,50.5 304.5,49.5C 313.167,49.5 321.833,49.5 330.5,49.5C 330.5,50.5 330.5,51.5 330.5,52.5C 326.452,52.4411 323.285,54.1078 321,57.5C 320.5,72.8297 320.333,88.163 320.5,103.5C 320.5,107.5 320.5,111.5 320.5,115.5C 319.5,115.5 318.5,115.5 317.5,115.5C 303.113,98.4206 288.946,81.0873 275,63.5C 274.333,78.5 274.333,93.5 275,108.5C 277.523,111.288 280.69,112.621 284.5,112.5C 284.5,113.833 284.5,115.167 284.5,116.5C 277.191,115.752 269.858,115.418 262.5,115.5C 261.167,115.5 259.833,115.5 258.5,115.5C 258.5,114.5 258.5,113.5 258.5,112.5C 262.213,112.23 265.046,110.564 267,107.5C 267.667,90.1667 267.667,72.8333 267,55.5C 264.695,53.0695 261.862,52.0695 258.5,52.5C 258.5,51.5 258.5,50.5 258.5,49.5C 260.833,49.5 263.167,49.5 265.5,49.5 Z"/></g>
<g><path style="opacity:1" fill="#f9fbfe" d="M 403.5,48.5 C 419.514,48.1672 435.514,48.5006 451.5,49.5C 452.756,54.1143 453.756,58.7809 454.5,63.5C 453.127,63.6567 451.793,63.49 450.5,63C 448.304,58.9033 444.971,56.2366 440.5,55C 435.833,54.3333 431.167,54.3333 426.5,55C 425.518,63.081 425.184,71.2476 425.5,79.5C 431.167,79.5 436.833,79.5 442.5,79.5C 441.53,75.0685 443.197,72.7352 447.5,72.5C 447.5,79.1667 447.5,85.8333 447.5,92.5C 446.167,92.5 444.833,92.5 443.5,92.5C 443.451,89.9009 442.451,87.7342 440.5,86C 435.511,85.5007 430.511,85.3341 425.5,85.5C 425.334,93.1739 425.5,100.841 426,108.5C 433.559,111.248 441.059,110.748 448.5,107C 450.7,104.766 452.533,102.266 454,99.5C 455.494,98.2528 456.994,98.2528 458.5,99.5C 456.425,104.724 454.758,110.058 453.5,115.5C 436.833,115.5 420.167,115.5 403.5,115.5C 403.5,114.5 403.5,113.5 403.5,112.5C 407.416,112.723 409.916,111.056 411,107.5C 411.667,90.1667 411.667,72.8333 411,55.5C 408.765,53.7976 406.265,52.7976 403.5,52.5C 403.5,51.1667 403.5,49.8333 403.5,48.5 Z"/></g>
<g><path style="opacity:1" fill="#fbfcfe" d="M 490.5,112.5 C 490.5,113.5 490.5,114.5 490.5,115.5C 481.833,115.5 473.167,115.5 464.5,115.5C 464.5,114.5 464.5,113.5 464.5,112.5C 468.13,112.235 471.297,110.902 474,108.5C 480.181,99.6561 486.348,90.8228 492.5,82C 486.915,72.1643 480.582,62.831 473.5,54C 471.975,52.9914 470.308,52.4914 468.5,52.5C 468.5,51.5 468.5,50.5 468.5,49.5C 478.167,49.5 487.833,49.5 497.5,49.5C 497.5,50.5 497.5,51.5 497.5,52.5C 493.323,51.8416 491.823,53.5082 493,57.5C 496.276,63.1082 499.943,68.4415 504,73.5C 509.11,68.1003 513.61,62.2669 517.5,56C 515.46,53.4817 512.793,52.315 509.5,52.5C 509.5,51.5 509.5,50.5 509.5,49.5C 518.167,49.5 526.833,49.5 535.5,49.5C 535.5,50.5 535.5,51.5 535.5,52.5C 533.436,52.687 531.436,53.187 529.5,54C 521.929,62.4811 514.596,71.1478 507.5,80C 514.124,89.4132 520.624,98.9132 527,108.5C 529.397,110.782 532.231,112.116 535.5,112.5C 535.5,113.833 535.5,115.167 535.5,116.5C 525.183,115.774 514.85,115.44 504.5,115.5C 504.809,112.654 506.475,111.154 509.5,111C 510.022,110.439 510.355,109.772 510.5,109C 506.545,102.259 502.211,95.7587 497.5,89.5C 491.882,95.2899 487.215,101.79 483.5,109C 484.954,111.728 487.288,112.894 490.5,112.5 Z"/></g>
<g><path style="opacity:1" fill="#7baffd" d="M 313.5,57.5 C 314.659,68.3255 314.826,79.3255 314,90.5C 313.283,89.9558 312.783,89.2891 312.5,88.5C 313.494,78.3468 313.828,68.0135 313.5,57.5 Z"/></g>
<g><path style="opacity:1" fill="#9dc3fd" d="M 320.5,103.5 C 321.485,107.634 321.818,111.968 321.5,116.5C 319.901,116.768 318.568,116.434 317.5,115.5C 318.5,115.5 319.5,115.5 320.5,115.5C 320.5,111.5 320.5,107.5 320.5,103.5 Z"/></g>
<g><path style="opacity:1" fill="#a3c7fd" d="M 258.5,112.5 C 258.5,113.5 258.5,114.5 258.5,115.5C 259.833,115.5 261.167,115.5 262.5,115.5C 261.081,116.451 259.415,116.784 257.5,116.5C 257.232,114.901 257.566,113.568 258.5,112.5 Z"/></g>
<g><path style="opacity:1" fill="#82b1fd" d="M 490.5,112.5 C 491.434,113.568 491.768,114.901 491.5,116.5C 482.318,116.827 473.318,116.493 464.5,115.5C 473.167,115.5 481.833,115.5 490.5,115.5C 490.5,114.5 490.5,113.5 490.5,112.5 Z"/></g>
<g><path style="opacity:1" fill="#9ac2fd" d="M 586.5,112.5 C 587.434,113.568 587.768,114.901 587.5,116.5C 584.941,116.802 582.607,116.468 580.5,115.5C 582.5,115.5 584.5,115.5 586.5,115.5C 586.5,114.5 586.5,113.5 586.5,112.5 Z"/></g>
</svg>
