<svg xmlns="http://www.w3.org/2000/svg" version="1.1" xmlns:xlink="http://www.w3.org/1999/xlink" xmlns:svgjs="http://svgjs.dev/svgjs" width="1000" height="1000" viewBox="0 0 1000 1000"><rect width="1000" height="1000" fill="#000000"></rect><g transform="matrix(0.7,0,0,0.7,149.57605563665675,418.4959312783069)"><svg viewBox="0 0 396 92" data-background-color="#ffffff" preserveAspectRatio="xMidYMid meet" height="232" width="1000" xmlns="http://www.w3.org/2000/svg" xmlns:xlink="http://www.w3.org/1999/xlink"><g id="tight-bounds" transform="matrix(1,0,0,1,0.24008861730862918,0.17225567977689593)"><svg viewBox="0 0 395.52 91.65516267958031" height="91.65516267958031" width="395.52"><g><svg viewBox="0 0 395.52 91.65516267958031" height="91.65516267958031" width="395.52"><g><svg viewBox="0 0 395.52 91.65516267958031" height="91.65516267958031" width="395.52"><g id="textblocktransform"><svg viewBox="0 0 395.52 91.65516267958031" height="91.65516267958031" width="395.52" id="textblock"><g><svg viewBox="0 0 395.52 91.65516267958031" height="91.65516267958031" width="395.52"><path d="M394.594 19.658C392.735 10.145 387.435 7.5 387.435 7.5 371.165-2.3 350.86-0.187 332.619 1.221 300.414 1.278 268.339 3.371 236.208 4.493 168.767 4.665 100.749 1.848 33.643 8.794 27.339 10.925-6.54 9.212 1.121 20.876 3.129 25.728 10.456 31.113 10.232 35.565 11.236 36.345 12.631 34.557 13.226 35.679 15.309 38.705 18.711 37.278 21.501 39.066 17.614 43.842 20.403 47.819 23.062 51.986 18.377 53.071 12.371 52.557 9.675 56.153 9.396 58.76 7.89 58.265 6.235 58.151 5.026 58.075 2.59 58.36 2.999 59.178 4.394 61.976-1.594 63.593 2.162 66.333-0.422 69.301 3.948 71.87 3.353 75.086 3.278 75.732 3.687 76.284 4.338 76.436 7.22 77.255 3.018 78.853 3.464 80.584 33.029 92.42 65.104 84.238 95.394 89.68 103.259 85.874 97.346 91.031 100.489 90.231 102.943 89.299 104.728 93.162 107.499 90.974 107.927 90.346 107.276 88.861 108.8 89.147 109.6 89.299 110.307 89.261 110.418 88.386 110.586 87.073 109.117 87.891 108.726 87.206 112.947 83.743 111.906 91.982 115.866 91.639 115.68 90.631 114.528 89.185 116.889 89.375 119.232 87.929 119.306 86.73 121.389 89.984 121.463 90.688 121.835 91.183 122.43 91.525 128.938 87.986 135.409 92.781 142.233 91.183 146.417 89.432 150.433 92.134 154.672 91.468 156.16 90.935 157.666 89.984 159.098 91.582 176.632 91.925 195.319 90.498 211.943 91.639 256.364 89.508 303.835 92.515 350.674 89.699 361.719 88.614 373.192 87.073 383.958 85.836 383.958 85.836 392.679 82.449 392.679 67.227S394.538 53.908 394.817 41.787C395.096 29.667 396.398 29.172 394.538 19.658Z" opacity="1" fill="#ffffff" data-fill-palette-color="tertiary"></path><g transform="matrix(1,0,0,1,55.76832,26.230666666666668)"><svg width="283.98335999999995" viewBox="1.2200000286102295 -32.90999984741211 241.97999572753906 33.400001525878906" height="39.19382934624697" data-palette-color="#ffffff"><path d="M1.51-23.88L1.51-23.88Q1.51-27.54 4.76-30.13 8.01-32.71 11.91-32.71L11.91-32.71Q12.94-32.71 14.04-32.57 15.14-32.42 15.89-32.28 16.65-32.13 17.99-31.81 19.34-31.49 20.12-31.35L20.12-31.35Q20.65-26.61 20.65-23.24L20.65-23.24Q20.46-22.75 19.92-22.75L19.92-22.75Q18.51-22.75 18.41-23.1L18.41-23.1Q18.07-25.54 16.31-27.76 14.55-29.98 11.96-29.98L11.96-29.98Q10.3-29.98 9.16-28.96 8.01-27.93 8.01-25.68L8.01-25.68Q8.01-24.71 8.5-23.78 8.98-22.85 10.13-21.88 11.28-20.9 12.01-20.41 12.74-19.92 14.4-18.85L14.4-18.85Q14.84-18.55 15.09-18.41L15.09-18.41Q15.48-18.16 16.7-17.43 17.92-16.7 18.43-16.33 18.95-15.97 19.85-15.14 20.75-14.31 21.17-13.5 21.58-12.7 21.92-11.4 22.27-10.11 22.27-8.54L22.27-8.54Q22.27-4.64 19.04-2.08 15.82 0.49 11.62 0.49L11.62 0.49Q7.76 0.49 2.34-0.78L2.34-0.78Q1.95-2.34 1.59-5.05 1.22-7.76 1.22-8.89L1.22-8.89Q1.37-9.38 2.1-9.38L2.1-9.38Q3.61-9.38 3.66-9.08L3.66-9.08Q4.05-6.84 6.1-4.57 8.15-2.29 10.64-2.29L10.64-2.29Q15.48-2.29 15.48-7.62L15.48-7.62Q15.48-8.45 15.04-9.25 14.6-10.06 13.72-10.84 12.84-11.62 12.16-12.11 11.47-12.6 10.23-13.38 8.98-14.16 8.64-14.4L8.64-14.4Q8.4-14.55 7.91-14.89L7.91-14.89Q6.3-15.97 5.47-16.6 4.64-17.24 3.54-18.36 2.44-19.48 1.98-20.83 1.51-22.17 1.51-23.88ZM28.56-6.74L28.56-25.49Q28.56-28.61 28.17-29.3L28.17-29.3Q27.93-29.69 26.8-30.1 25.68-30.52 25.14-30.52L25.14-30.52Q24.95-30.52 24.95-31.35L24.95-31.35Q24.95-32.23 25.05-32.32L25.05-32.32Q25.78-32.28 27.39-32.15 29-32.03 29.81-32.01 30.61-31.98 32.13-32.03L32.13-32.03Q33.1-32.03 38.96-32.32L38.96-32.32Q39.11-31.88 39.11-31.45L39.11-31.45Q39.11-30.52 38.91-30.52L38.91-30.52Q38.47-30.52 37.16-30.1 35.84-29.69 35.74-29.35L35.74-29.35Q35.59-28.76 35.5-27.71 35.4-26.66 35.4-25.93L35.4-25.93 35.4-25.2 35.4-7.13Q35.4-4.35 35.79-2.83L35.79-2.83Q35.89-2.49 37.13-2.05 38.38-1.61 38.82-1.61L38.82-1.61Q39.01-1.61 39.01-0.68L39.01-0.68Q39.01-0.1 38.91 0.2L38.91 0.2Q38.57 0.2 35.98 0 33.4-0.2 32.13-0.2L32.13-0.2Q30.81-0.2 28.27-0.02 25.73 0.15 25.05 0.2L25.05 0.2Q24.85 0 24.85-0.59L24.85-0.59Q24.85-1.61 25-1.61L25-1.61Q25.53-1.61 26.8-2.03 28.07-2.44 28.22-2.83L28.22-2.83Q28.56-4.15 28.56-6.74L28.56-6.74ZM41.69-15.72L41.69-15.72Q41.69-22.61 46.38-27.59 51.07-32.57 57.76-32.57L57.76-32.57Q63.08-32.57 68.94-31.15L68.94-31.15Q69.18-31.1 69.62-27.47 70.06-23.83 70.06-23.14L70.06-23.14Q70.06-22.75 69.18-22.75L69.18-22.75Q68.16-22.75 67.67-23L67.67-23Q67.43-23.93 66.89-24.9 66.35-25.88 65.28-27.1 64.2-28.32 62.3-29.08 60.4-29.83 58-29.83L58-29.83Q49.21-29.83 49.21-16.85L49.21-16.85Q49.21-13.18 50.17-10.03 51.12-6.88 53.54-4.59 55.95-2.29 59.57-2.29L59.57-2.29Q61.71-2.29 62.69-3.08L62.69-3.08Q63.23-3.52 63.23-4.54L63.23-4.54 63.23-7.62 63.23-7.96Q63.23-10.45 62.89-11.72L62.89-11.72Q62.5-13.04 59.66-13.04L59.66-13.04Q59.47-13.04 59.44-13.84 59.42-14.65 59.61-14.84L59.61-14.84Q60.49-14.79 61.93-14.72 63.37-14.65 64.57-14.6 65.77-14.55 66.89-14.55L66.89-14.55Q67.62-14.55 73.48-14.84L73.48-14.84Q73.63-14.4 73.63-13.87L73.63-13.87Q73.63-12.99 73.43-12.99L73.43-12.99Q72.31-12.99 70.84-12.26L70.84-12.26Q70.06-11.87 70.06-8.4L70.06-8.4 70.06-5.57Q70.06-4.69 70.21-4.25 70.36-3.81 70.36-3.71L70.36-3.71Q70.36-2.88 69.33-2.34L69.33-2.34Q67.52-1.42 66.52-1 65.52-0.59 62.96-0.07 60.4 0.44 57.22 0.44L57.22 0.44Q50.78 0.44 46.24-4.37 41.69-9.18 41.69-15.72ZM103.46-14.11L103.46-25.59Q103.46-28.37 102.82-29.1L102.82-29.1Q102.39-29.64 100.99-30.08 99.6-30.52 99.02-30.52L99.02-30.52Q98.82-30.52 98.77-31.32 98.72-32.13 98.87-32.32L98.87-32.32Q103.36-31.93 105.31-31.93L105.31-31.93Q106.54-31.93 108.66-32.1 110.78-32.28 111.37-32.32L111.37-32.32Q111.56-31.93 111.56-31.45L111.56-31.45Q111.56-30.52 111.32-30.52L111.32-30.52Q108.64-30.52 107.27-28.91L107.27-28.91Q106.58-28.08 106.58-25.34L106.58-25.34 106.58-6.79Q106.58-5.03 106.78 0.05L106.78 0.05Q106.58 0.24 105.56 0.24L105.56 0.24Q104.97 0.24 104.05-0.88L104.05-0.88 84.17-25.59 84.17-6.88Q84.17-4.2 84.56-3.42L84.56-3.42Q85-2.59 86.61-2.12 88.22-1.66 88.96-1.66L88.96-1.66Q89.1-1.66 89.13-0.83 89.15 0 89.06 0.2L89.06 0.2Q88.62 0.2 86.17 0 83.73-0.2 82.46-0.2 81.19-0.2 79.24-0.02 77.29 0.15 76.41 0.2L76.41 0.2Q76.26 0.05 76.26-0.68L76.26-0.68Q76.26-1.61 76.41-1.61L76.41-1.61Q76.9-1.61 77.53-1.71 78.17-1.81 79.14-2.27 80.12-2.73 80.56-3.47L80.56-3.47Q81.05-4.25 81.05-7.03L81.05-7.03 81.05-26.22Q81.05-28.76 80.31-29.69L80.31-29.69Q80.07-30.03 78.61-30.27 77.14-30.52 76.46-30.52L76.46-30.52Q76.26-30.52 76.21-31.32 76.16-32.13 76.36-32.32L76.36-32.32Q77.14-32.28 79.46-32.1 81.78-31.93 83.05-31.93L83.05-31.93Q84.71-31.93 87.83-32.32L87.83-32.32Q88.66-30.66 91.08-27.51 93.5-24.37 97.31-19.73 101.12-15.09 103.36-12.11L103.36-12.11Q103.46-12.45 103.46-14.11L103.46-14.11ZM123.65-32.23Q126.94-32.08 128.99-32.08 131.04-32.08 134.37-32.23 137.69-32.37 139.74-32.37L139.74-32.37Q140.96-32.37 143.11-32.91L143.11-32.91 144.03-24.9Q143.69-24.56 142.62-24.56L142.62-24.56Q142.18-24.56 142.13-24.8L142.13-24.8Q140.91-29.64 136.9-29.64L136.9-29.64Q132.95-29.64 132.75-28.76L132.75-28.76Q132.36-27.39 132.36-24.41L132.36-24.41 132.36-6.79Q132.36-4.35 132.75-2.83L132.75-2.83Q132.85-2.49 134.1-2.05 135.34-1.61 135.78-1.61L135.78-1.61Q135.98-1.61 135.98-0.68L135.98-0.68Q135.98-0.1 135.88 0.2L135.88 0.2Q135.54 0.2 132.95 0 130.36-0.2 129.09-0.2L129.09-0.2Q127.77-0.2 125.23-0.02 122.7 0.15 122.01 0.2L122.01 0.2Q121.82 0 121.82-0.59L121.82-0.59Q121.82-1.61 121.96-1.61L121.96-1.61Q122.5-1.61 123.77-2.03 125.04-2.44 125.19-2.83L125.19-2.83Q125.53-4.15 125.53-6.59L125.53-6.59 125.53-24.27Q125.53-28.08 125.14-28.76L125.14-28.76Q124.99-29.05 124.87-29.17 124.75-29.3 123.82-29.47 122.89-29.64 121.13-29.64L121.13-29.64Q119.13-29.64 117.86-28.54 116.59-27.44 115.91-24.85L115.91-24.85Q115.86-24.61 115.42-24.61L115.42-24.61Q114.35-24.61 114-24.95L114-24.95 114.93-32.91Q117.08-32.37 118.3-32.37L118.3-32.37Q120.35-32.37 123.65-32.23ZM153.89-32.18L153.89-32.18Q156.04-32.18 161.46-32.3 166.88-32.42 169.67-32.42L169.67-32.42Q169.71-31.93 171.08-25.2L171.08-25.2Q170.84-24.95 169.96-24.95L169.96-24.95Q169.42-24.95 169.27-25.29L169.27-25.29Q168.35-27.15 166.34-28.47 164.34-29.79 162.44-29.79L162.44-29.79 160.58-29.79Q157.51-29.79 157.41-29.15L157.41-29.15Q157.17-27.98 157.17-25.34L157.17-25.34 157.17-17.82Q157.17-17.53 159.26-17.53L159.26-17.53 161.85-17.53Q164.88-17.53 165.17-17.72L165.17-17.72Q165.42-17.92 165.56-19.14L165.56-19.14Q165.66-19.87 165.86-20.56L165.86-20.56Q165.91-20.9 166.59-20.9L166.59-20.9Q167.42-20.9 167.66-20.65L167.66-20.65 167.66-11.43Q167.47-11.23 166.64-11.23L166.64-11.23Q166-11.23 165.86-11.62L165.86-11.62Q165.66-12.3 165.51-12.79 165.37-13.28 165.27-13.53 165.17-13.77 165.05-13.96 164.93-14.16 164.88-14.21 164.83-14.26 164.68-14.33 164.54-14.4 164.49-14.45L164.49-14.45Q163.85-14.84 160.68-14.84L160.68-14.84Q157.17-14.84 157.17-14.4L157.17-14.4 157.17-6.88Q157.17-4.54 157.56-3.42L157.56-3.42Q157.8-2.64 160.88-2.64L160.88-2.64 162.15-2.64Q165.17-2.64 167.61-3.91L167.61-3.91Q168.44-4.35 169.49-5.57 170.54-6.79 171.13-8.3L171.13-8.3Q171.18-8.59 171.81-8.59L171.81-8.59Q172.99-8.59 173.28-8.3L173.28-8.3Q170.89-1.56 170.64 0.1L170.64 0.1Q168.15 0.1 162.73 0 157.31-0.1 153.94-0.1L153.94-0.1 146.81 0.2Q146.62 0 146.62-0.63L146.62-0.63Q146.62-1.61 146.81-1.61L146.81-1.61Q147.4-1.61 148.64-1.95 149.89-2.29 150.04-2.69L150.04-2.69Q150.33-3.81 150.33-6.98L150.33-6.98 150.33-25.44Q150.33-28.13 150.04-29.25L150.04-29.25Q149.89-29.64 148.6-30.13 147.3-30.62 146.76-30.62L146.76-30.62Q146.57-30.62 146.57-31.49L146.57-31.49Q146.57-32.28 146.72-32.42L146.72-32.42Q150.62-32.18 153.89-32.18ZM184.85-32.03L184.85-32.03Q186.02-32.03 191.88-32.32L191.88-32.32Q191.98-32.13 191.95-31.32 191.93-30.52 191.78-30.52L191.78-30.52Q191.05-30.52 190.15-30.25 189.24-29.98 189.19-29.49L189.19-29.49Q189.19-29 189.58-28.42L189.58-28.42 195-20.21Q195.59-20.95 196.62-22.19 197.64-23.44 198.37-24.37 199.11-25.29 199.89-26.29 200.67-27.29 201.08-28 201.5-28.71 201.5-29L201.5-29Q201.5-29.59 200.35-30.05 199.2-30.52 197.89-30.52L197.89-30.52Q197.69-30.52 197.67-31.32 197.64-32.13 197.84-32.32L197.84-32.32Q203.26-32.03 203.89-32.03 204.53-32.03 210.39-32.32L210.39-32.32Q210.53-32.08 210.53-31.3 210.53-30.52 210.34-30.52L210.34-30.52Q209.65-30.52 208.24-30.08 206.82-29.64 205.99-28.61L205.99-28.61 196.86-17.38Q205.26-4.74 206.14-3.71L206.14-3.71Q207.07-2.64 208.36-2.12 209.65-1.61 210.29-1.61L210.29-1.61Q210.43-1.61 210.43-0.54L210.43-0.54Q210.43-0.1 210.29 0.2L210.29 0.2Q204.43-0.1 203.16-0.1L203.16-0.1Q201.55-0.1 198.72 0.05 195.88 0.2 195.44 0.2L195.44 0.2Q195.25 0 195.3-0.81 195.35-1.61 195.54-1.61L195.54-1.61Q196.18-1.61 197.23-2 198.28-2.39 198.28-2.98L198.28-2.98Q198.28-3.27 198.13-3.52L198.13-3.52 191.78-13.13Q184.95-4.05 184.95-3.22L184.95-3.22Q184.95-2.49 186.12-2.05 187.29-1.61 188.56-1.61L188.56-1.61Q188.8-1.61 188.8-0.59L188.8-0.59Q188.8 0 188.71 0.2L188.71 0.2Q183.87-0.1 182.26-0.1L182.26-0.1Q181.87-0.1 176.01 0.2L176.01 0.2Q175.82-0.39 175.82-0.49L175.82-0.49Q175.82-1.61 176.01-1.61L176.01-1.61Q176.65-1.61 178.21-2.08 179.77-2.54 180.31-3.27L180.31-3.27 189.73-16.21 183.19-26.22Q181.14-29.39 180.55-29.79L180.55-29.79Q179.53-30.52 177.96-30.52L177.96-30.52Q177.77-30.52 177.77-31.32 177.77-32.13 177.96-32.32L177.96-32.32Q178.26-32.32 180.84-32.18 183.43-32.03 184.85-32.03ZM222.81-32.23Q226.11-32.08 228.16-32.08 230.21-32.08 233.53-32.23 236.85-32.37 238.9-32.37L238.9-32.37Q240.12-32.37 242.27-32.91L242.27-32.91 243.2-24.9Q242.85-24.56 241.78-24.56L241.78-24.56Q241.34-24.56 241.29-24.8L241.29-24.8Q240.07-29.64 236.07-29.64L236.07-29.64Q232.11-29.64 231.92-28.76L231.92-28.76Q231.53-27.39 231.53-24.41L231.53-24.41 231.53-6.79Q231.53-4.35 231.92-2.83L231.92-2.83Q232.01-2.49 233.26-2.05 234.5-1.61 234.94-1.61L234.94-1.61Q235.14-1.61 235.14-0.68L235.14-0.68Q235.14-0.1 235.04 0.2L235.04 0.2Q234.7 0.2 232.11 0 229.52-0.2 228.25-0.2L228.25-0.2Q226.94-0.2 224.4-0.02 221.86 0.15 221.17 0.2L221.17 0.2Q220.98 0 220.98-0.59L220.98-0.59Q220.98-1.61 221.13-1.61L221.13-1.61Q221.66-1.61 222.93-2.03 224.2-2.44 224.35-2.83L224.35-2.83Q224.69-4.15 224.69-6.59L224.69-6.59 224.69-24.27Q224.69-28.08 224.3-28.76L224.3-28.76Q224.15-29.05 224.03-29.17 223.91-29.3 222.98-29.47 222.05-29.64 220.3-29.64L220.3-29.64Q218.29-29.64 217.02-28.54 215.75-27.44 215.07-24.85L215.07-24.85Q215.02-24.61 214.58-24.61L214.58-24.61Q213.51-24.61 213.17-24.95L213.17-24.95 214.09-32.91Q216.24-32.37 217.46-32.37L217.46-32.37Q219.51-32.37 222.81-32.23Z" opacity="1" transform="matrix(1,0,0,1,0,0)" fill="#000000" class="wordmark-text-0" data-fill-palette-color="quaternary" id="text-0"></path></svg></g></svg></g></svg></g></svg></g><g></g></svg></g><defs></defs></svg><rect width="395.52" height="91.65516267958031" fill="none" stroke="none" visibility="hidden"></rect></g></svg></g></svg>